<?xml version="1.0" standalone="no"?>
<!DOCTYPE svg PUBLIC "-//W3C//DTD SVG 20010904//EN"
 "http://www.w3.org/TR/2001/REC-SVG-20010904/DTD/svg10.dtd">
<svg version="1.0" xmlns="http://www.w3.org/2000/svg"
 width="617.000000pt" height="617.000000pt" viewBox="0 0 617.000000 617.000000"
 preserveAspectRatio="xMidYMid meet">
<metadata>
Created by potrace 1.14, written by Peter Selinger 2001-2017
</metadata>
<g transform="translate(0.000000,617.000000) scale(0.100000,-0.100000)"
fill="#000000" stroke="none">
<path d="M1677 5494 c-1 -1 -31 -4 -67 -8 -81 -8 -110 -13 -185 -33 -33 -8
-70 -18 -82 -20 -13 -3 -23 -8 -23 -12 0 -4 -8 -7 -17 -8 -10 -1 -45 -14 -78
-30 -33 -15 -62 -28 -65 -28 -6 -1 -65 -33 -95 -52 -11 -7 -27 -15 -35 -19 -8
-4 -17 -10 -20 -14 -3 -3 -34 -26 -70 -51 -84 -58 -96 -68 -194 -164 -107
-104 -180 -190 -251 -295 -32 -47 -63 -88 -69 -92 -6 -4 -7 -8 -3 -8 4 0 -4
-17 -18 -37 -14 -21 -25 -43 -25 -50 0 -7 -4 -13 -8 -13 -5 0 -27 -39 -50 -87
-85 -183 -103 -227 -101 -247 0 -5 -3 -12 -8 -15 -5 -3 -19 -37 -32 -76 -12
-38 -25 -77 -28 -85 -3 -8 -7 -19 -8 -25 -2 -5 -13 -46 -25 -90 -12 -44 -23
-91 -26 -105 -2 -14 -9 -45 -14 -70 -10 -44 -17 -84 -24 -145 -2 -16 -9 -66
-16 -110 -6 -44 -12 -98 -13 -120 -1 -22 -6 -45 -10 -52 -4 -6 -3 -14 2 -17 5
-4 6 -19 2 -34 -8 -31 -6 -362 4 -437 3 -27 7 -72 9 -100 2 -27 6 -61 9 -75 3
-14 11 -59 17 -100 10 -62 27 -140 64 -300 21 -90 81 -268 117 -347 11 -26 30
-68 41 -93 74 -167 212 -408 239 -418 5 -2 9 -8 9 -14 0 -9 45 -71 75 -104 5
-6 28 -33 50 -59 197 -236 491 -435 765 -521 52 -16 174 -41 235 -49 98 -12
308 -4 380 14 22 5 55 12 73 16 28 5 118 33 220 68 17 7 32 15 32 19 0 5 6 8
13 8 23 0 225 114 247 139 3 4 23 19 45 36 84 61 229 204 309 303 182 226 345
538 431 827 39 130 44 139 40 70 -2 -33 -5 -60 -5 -60 -4 0 -23 -182 -22 -209
1 -21 40 -66 58 -66 6 0 14 -7 18 -15 3 -8 12 -15 21 -15 8 0 15 -4 15 -8 0
-4 18 -19 40 -32 22 -14 40 -28 40 -32 0 -5 7 -8 15 -8 8 0 15 -3 15 -7 0 -5
24 -24 53 -43 28 -19 54 -37 57 -41 3 -3 28 -21 55 -40 28 -18 53 -38 57 -43
11 -15 74 -8 111 13 19 11 38 17 41 14 3 -4 6 -1 6 5 0 6 7 9 15 6 8 -4 15 -1
15 4 0 6 10 14 23 18 21 6 76 30 174 76 24 11 49 21 55 22 21 4 138 66 139 74
4 29 8 65 12 117 3 33 7 60 8 60 1 0 3 18 5 40 5 71 12 150 14 150 1 0 3 14 4
30 2 17 6 62 10 100 5 51 3 75 -6 87 -7 10 -78 65 -158 122 -80 58 -152 111
-160 118 -8 7 -22 18 -30 23 -9 6 -38 25 -65 42 -48 33 -72 36 -111 15 -22
-12 -97 -46 -104 -47 -3 -1 -21 -8 -40 -17 -239 -107 -313 -138 -316 -135 -2
2 3 50 11 106 23 153 32 316 29 511 -2 146 -21 370 -38 457 -3 11 -8 42 -12
68 -7 47 -6 47 13 29 59 -56 122 -114 126 -114 2 0 28 -24 58 -52 127 -121
137 -129 171 -129 33 0 50 3 78 14 8 3 44 15 80 26 36 11 103 34 150 52 47 17
94 33 105 35 93 22 118 43 131 109 8 39 26 130 29 150 2 11 7 38 11 60 3 22 7
46 7 53 0 6 4 12 9 12 5 0 7 4 3 9 -3 6 0 29 6 53 6 24 12 55 13 69 2 14 5 30
8 35 3 5 4 26 4 46 -1 31 -10 45 -65 95 -35 32 -88 82 -119 111 -30 28 -57 52
-59 52 -2 0 -18 15 -36 33 -18 17 -52 47 -74 66 -23 19 -40 38 -37 42 10 17
-63 23 -91 8 -5 -3 -44 -16 -85 -30 -41 -13 -76 -27 -78 -31 -2 -5 -16 -8 -31
-8 -15 0 -31 -4 -37 -9 -8 -8 -110 -45 -126 -46 -3 0 -10 -3 -14 -7 -4 -5 -18
-8 -31 -8 -13 0 -23 -5 -23 -10 0 -6 -3 -9 -7 -8 -19 5 -53 -15 -53 -31 0 -10
-3 -21 -7 -25 -8 -7 -12 -26 -18 -71 -2 -16 -6 -43 -10 -60 -4 -16 -8 -39 -10
-50 -1 -11 -3 -20 -5 -20 -1 0 -3 -11 -5 -25 -2 -14 -8 -52 -14 -85 -6 -33
-11 -63 -11 -67 0 -5 -4 -8 -8 -8 -5 0 -19 37 -31 83 -50 182 -201 522 -292
654 -16 23 -29 44 -29 48 0 3 -13 23 -28 43 -16 20 -54 71 -85 112 -53 71
-217 245 -282 300 -83 70 -233 167 -340 220 -112 55 -292 118 -360 125 -16 1
-50 6 -75 10 -40 6 -237 14 -243 9z"/>
<path d="M5530 4469 c0 -5 -4 -8 -8 -5 -5 3 -33 -17 -63 -44 -30 -27 -60 -49
-66 -50 -7 0 -13 -6 -13 -12 0 -7 -21 -28 -45 -47 -25 -18 -72 -58 -104 -87
-32 -30 -73 -67 -91 -83 -34 -29 -39 -55 -25 -131 3 -19 8 -48 11 -65 8 -40
11 -61 18 -115 3 -25 9 -56 12 -70 8 -36 13 -70 18 -110 3 -19 5 -35 6 -35 1
0 3 -12 5 -27 8 -59 14 -66 98 -98 45 -18 91 -36 102 -41 11 -5 52 -21 90 -35
39 -15 106 -40 150 -56 77 -29 123 -36 134 -20 3 4 40 36 81 72 41 35 77 67
80 70 3 3 23 20 45 39 78 66 159 136 177 153 15 15 17 28 12 75 -7 66 -11 96
-14 103 -1 3 -2 8 -1 12 0 3 -6 41 -15 84 -8 43 -16 96 -18 119 -2 22 -6 47
-9 55 -3 8 -8 31 -11 50 -13 87 -27 119 -53 122 -4 0 -19 4 -33 9 -36 13 -44
16 -55 19 -5 1 -26 10 -45 20 -19 10 -55 25 -80 33 -25 9 -99 36 -165 61 -135
52 -125 49 -125 35z"/>
<path d="M4927 3404 c-6 -7 -95 -55 -197 -107 -205 -104 -260 -134 -275 -148
-11 -11 -13 -43 -19 -364 -3 -121 -2 -225 2 -230 4 -6 21 -17 37 -25 17 -8 32
-17 35 -20 4 -5 194 -118 270 -161 14 -8 33 -20 43 -28 9 -8 17 -10 17 -6 0 5
10 -1 23 -12 12 -12 39 -26 60 -31 42 -12 7 -27 392 172 60 31 114 61 120 66
7 6 14 7 18 4 3 -3 12 7 21 23 10 21 15 65 16 154 3 224 8 391 14 396 12 12
-17 45 -69 78 -31 19 -60 35 -65 35 -6 0 -10 5 -10 10 0 6 -5 10 -11 10 -11 0
-150 79 -159 90 -3 4 -20 13 -37 21 -18 8 -33 17 -33 21 0 5 -9 8 -20 8 -11 0
-20 4 -20 8 0 5 -19 19 -42 31 -45 23 -90 25 -111 5z"/>
</g>
</svg>
